<svg version="1.2" baseProfile="tiny" xmlns="http://www.w3.org/2000/svg" width="394" height="57" viewBox="-2.622 -2.801 394 57" overflow="visible"><path fill="#333" d="M248.153 5.651h11.52l18.216 48.024h-15.12l-1.584-4.32h-14.544l-1.584 4.32h-15.12l18.216-48.024zm9 33.12l-3.24-8.424-3.24 8.424h6.48z"/><path d="M244.153 1.651h11.52l18.216 48.024h-15.12l-1.584-4.32h-14.544l-1.584 4.32h-15.12l18.216-48.024zm9 33.12l-3.24-8.424-3.24 8.424h6.48z"/><path fill="none" stroke="#FFF" stroke-miterlimit="10" d="M244.153 1.651h11.52l18.216 48.024h-15.12l-1.584-4.32h-14.544l-1.584 4.32h-15.12l18.216-48.024zm9 33.12l-3.24-8.424-3.24 8.424h6.48z"/><path fill="#333" d="M55.128 5.651h11.521l18.216 48.024h-15.12l-1.584-4.32H53.616l-1.584 4.32h-15.12L55.128 5.651zm9 33.12l-3.239-8.424-3.24 8.424h6.479z"/><path d="M51.128 1.651h11.521l18.216 48.024h-15.12l-1.584-4.32H49.616l-1.584 4.32h-15.12L51.128 1.651zm9 33.12l-3.239-8.424-3.24 8.424h6.479z"/><path fill="none" stroke="#FFF" stroke-miterlimit="10" d="M51.128 1.651h11.521l18.216 48.024h-15.12l-1.584-4.32H49.616l-1.584 4.32h-15.12L51.128 1.651zm9 33.12l-3.239-8.424-3.24 8.424h6.479z"/><path fill="#333" d="M5 42.154h5.256c1.536 0 2.567-.287 3.097-.863.527-.576.792-1.391.792-2.447V5.651h15.768v35.856c0 4.463-1.021 7.607-3.06 9.432-2.041 1.824-5.292 2.736-9.756 2.736H5V42.154z"/><path d="M1 38.154h5.256c1.536 0 2.567-.287 3.097-.863.527-.576.792-1.391.792-2.447V1.651h15.768v35.856c0 4.463-1.021 7.607-3.06 9.432-2.041 1.824-5.292 2.736-9.756 2.736H1V38.154z"/><path fill="#FFF" d="M25.912 1.651v35.856c0 4.463-1.021 7.607-3.06 9.432-2.041 1.824-5.292 2.736-9.756 2.736H1V38.154h5.256c1.536 0 2.567-.287 3.097-.863.527-.576.792-1.391.792-2.447V1.651h15.767m1-1H9.145v34.192c0 .792-.178 1.388-.53 1.772-.148.16-.676.538-2.359.538H0v13.521h13.097c4.695 0 8.202-1.006 10.422-2.99 2.251-2.015 3.393-5.438 3.393-10.178V.651z"/><linearGradient id="a" gradientUnits="userSpaceOnUse" x1="12.844" y1="43.916" x2="12.844" y2="7.412"><stop offset="0" stop-color="#0f0"/><stop offset=".181" stop-color="#03ff00"/><stop offset=".314" stop-color="#0cfe00"/><stop offset=".431" stop-color="#1cfe00"/><stop offset=".539" stop-color="#33fc00"/><stop offset=".641" stop-color="#50fb00"/><stop offset=".739" stop-color="#74f900"/><stop offset=".833" stop-color="#9ef700"/><stop offset=".921" stop-color="#cef400"/><stop offset="1" stop-color="#fff200"/></linearGradient><path fill="url(#a)" d="M12.592 43.916c2.352 0 3.996-.516 4.933-1.549.936-1.031 1.404-2.58 1.404-4.645V7.411h-1.872v30.312c0 1.488-.265 2.605-.792 3.348-.529.746-1.753 1.117-3.673 1.117H6.76v1.729h5.832z"/><path fill="#333" d="M91.864 5.651h15.985v35.423h13.248v12.602H91.864z"/><path d="M87.864 1.651h15.985v35.423h13.248v12.602H87.864z"/><path fill="none" stroke="#FFF" stroke-miterlimit="10" d="M87.864 1.651h15.985v35.423h13.248v12.602H87.864z"/><linearGradient id="b" gradientUnits="userSpaceOnUse" x1="104.064" y1="43.916" x2="104.064" y2="7.412"><stop offset="0" stop-color="#0f0"/><stop offset=".181" stop-color="#03ff00"/><stop offset=".314" stop-color="#0cfe00"/><stop offset=".431" stop-color="#1cfe00"/><stop offset=".539" stop-color="#33fc00"/><stop offset=".641" stop-color="#50fb00"/><stop offset=".739" stop-color="#74f900"/><stop offset=".833" stop-color="#9ef700"/><stop offset=".921" stop-color="#cef400"/><stop offset="1" stop-color="#fff200"/></linearGradient><path fill="url(#b)" d="M113.064 43.916v-1.728H96.937V7.411h-1.873v36.505z"/><path fill="#333" d="M159.776 21.995c-.864-.767-1.944-1.355-3.24-1.764-1.296-.407-2.568-.612-3.815-.612-1.393 0-2.664.252-3.816.757a9.078 9.078 0 0 0-2.988 2.088c-.84.889-1.5 1.956-1.979 3.204-.48 1.248-.72 2.592-.72 4.031s.263 2.785.792 4.031c.527 1.25 1.247 2.316 2.16 3.205a9.967 9.967 0 0 0 3.203 2.088c1.225.504 2.531.756 3.925.756 1.631 0 3.119-.348 4.464-1.045a10.66 10.66 0 0 0 3.456-2.844h-4.32V25.812H175.4v15.983a26.44 26.44 0 0 1-3.96 5.363 25.202 25.202 0 0 1-5.147 4.141 25.079 25.079 0 0 1-12.996 3.6c-3.456 0-6.721-.646-9.792-1.943-3.073-1.297-5.749-3.07-8.028-5.328-2.28-2.256-4.08-4.92-5.4-7.992-1.32-3.07-1.979-6.383-1.979-9.936 0-3.456.623-6.72 1.872-9.792 1.247-3.071 2.963-5.747 5.147-8.027 2.184-2.279 4.776-4.08 7.776-5.4 2.999-1.319 6.228-1.979 9.684-1.979 2.688 0 5.016.264 6.984.792s3.624 1.128 4.968 1.8c1.584.769 2.903 1.608 3.96 2.52l-8.713 12.381z"/><path d="M155.776 17.995c-.864-.767-1.944-1.355-3.24-1.764-1.296-.407-2.568-.612-3.815-.612-1.393 0-2.664.252-3.816.757a9.078 9.078 0 0 0-2.988 2.088c-.84.889-1.5 1.956-1.979 3.204-.48 1.248-.72 2.592-.72 4.031s.263 2.785.792 4.031c.527 1.25 1.247 2.316 2.16 3.205a9.967 9.967 0 0 0 3.203 2.088c1.225.504 2.531.756 3.925.756 1.631 0 3.119-.348 4.464-1.045a10.66 10.66 0 0 0 3.456-2.844h-4.32V21.812H171.4v15.983a26.44 26.44 0 0 1-3.96 5.363 25.202 25.202 0 0 1-5.147 4.141 25.079 25.079 0 0 1-12.996 3.6c-3.456 0-6.721-.646-9.792-1.943-3.073-1.297-5.749-3.07-8.028-5.328-2.28-2.256-4.08-4.92-5.4-7.992-1.32-3.07-1.979-6.383-1.979-9.936 0-3.456.623-6.72 1.872-9.792 1.247-3.071 2.963-5.747 5.147-8.027 2.184-2.279 4.776-4.08 7.776-5.4 2.999-1.319 6.228-1.979 9.684-1.979 2.688 0 5.016.264 6.984.792s3.624 1.128 4.968 1.8c1.584.769 2.903 1.608 3.96 2.52l-8.713 12.381z"/><path fill="none" stroke="#FFF" stroke-miterlimit="10" d="M155.776 17.995c-.864-.767-1.944-1.355-3.24-1.764-1.296-.407-2.568-.612-3.815-.612-1.393 0-2.664.252-3.816.757a9.078 9.078 0 0 0-2.988 2.088c-.84.889-1.5 1.956-1.979 3.204-.48 1.248-.72 2.592-.72 4.031s.263 2.785.792 4.031c.527 1.25 1.247 2.316 2.16 3.205a9.967 9.967 0 0 0 3.203 2.088c1.225.504 2.531.756 3.925.756 1.631 0 3.119-.348 4.464-1.045a10.66 10.66 0 0 0 3.456-2.844h-4.32V21.812H171.4v15.983a26.44 26.44 0 0 1-3.96 5.363 25.202 25.202 0 0 1-5.147 4.141 25.079 25.079 0 0 1-12.996 3.6c-3.456 0-6.721-.646-9.792-1.943-3.073-1.297-5.749-3.07-8.028-5.328-2.28-2.256-4.08-4.92-5.4-7.992-1.32-3.07-1.979-6.383-1.979-9.936 0-3.456.623-6.72 1.872-9.792 1.247-3.071 2.963-5.747 5.147-8.027 2.184-2.279 4.776-4.08 7.776-5.4 2.999-1.319 6.228-1.979 9.684-1.979 2.688 0 5.016.264 6.984.792s3.624 1.128 4.968 1.8c1.584.769 2.903 1.608 3.96 2.52l-8.713 12.381z"/><linearGradient id="c" gradientUnits="userSpaceOnUse" x1="147.856" y1="44.131" x2="147.856" y2="7.268"><stop offset="0" stop-color="#00aeef"/><stop offset=".186" stop-color="#03acee"/><stop offset=".323" stop-color="#0ca5ea"/><stop offset=".444" stop-color="#1c99e3"/><stop offset=".555" stop-color="#3389da"/><stop offset=".66" stop-color="#5073cd"/><stop offset=".761" stop-color="#7459be"/><stop offset=".858" stop-color="#9e39ad"/><stop offset=".949" stop-color="#ce1699"/><stop offset="1" stop-color="#ec008c"/></linearGradient><path fill="url(#c)" d="M156.496 8.708a11.9 11.9 0 0 0-2.088-.721 20.753 20.753 0 0 0-2.376-.504 19.462 19.462 0 0 0-3.023-.216c-2.545 0-4.921.457-7.128 1.368-2.209.912-4.129 2.172-5.761 3.78s-2.916 3.54-3.852 5.796c-.937 2.257-1.404 4.752-1.404 7.487 0 2.736.479 5.232 1.44 7.488.959 2.256 2.279 4.188 3.96 5.795 1.68 1.609 3.636 2.869 5.868 3.781 2.231.912 4.619 1.367 7.164 1.367 3.312 0 6.311-.779 9-2.34a19.156 19.156 0 0 0 6.552-6.229v-9.431h-7.632v1.728h5.76v7.199c-1.488 2.209-3.42 3.961-5.796 5.256-2.376 1.297-5.004 1.945-7.884 1.945-2.305 0-4.453-.396-6.444-1.189-1.992-.791-3.744-1.918-5.256-3.383s-2.7-3.215-3.564-5.256c-.863-2.041-1.296-4.285-1.296-6.732s.42-4.691 1.26-6.731 1.991-3.791 3.456-5.256a15.249 15.249 0 0 1 5.148-3.385c1.968-.792 4.104-1.188 6.408-1.188.863 0 1.68.072 2.447.216.768.145 1.44.288 2.017.432.672.192 1.296.385 1.872.576l1.152-1.653z"/><path fill="#333" d="M182.401 5.651h16.56c3.071 0 5.915.408 8.532 1.225 2.615.816 4.884 2.016 6.804 3.6 1.919 1.584 3.42 3.54 4.5 5.868s1.62 5.004 1.62 8.027c0 2.401-.337 4.44-1.008 6.12-.673 1.681-1.417 3.071-2.232 4.177a15.626 15.626 0 0 1-3.24 3.168l9 15.84h-18l-7.199-12.168v12.168h-15.336V5.651zm15.336 23.617h.792c1.823 0 3.371-.407 4.644-1.224 1.271-.816 1.908-2.184 1.908-4.104 0-1.919-.637-3.287-1.908-4.104-1.272-.816-2.82-1.225-4.644-1.225h-.792v10.657z"/><path d="M178.401 1.651h16.56c3.071 0 5.915.408 8.532 1.225 2.615.816 4.884 2.016 6.804 3.6 1.919 1.584 3.42 3.54 4.5 5.868s1.62 5.004 1.62 8.027c0 2.401-.337 4.44-1.008 6.12-.673 1.681-1.417 3.071-2.232 4.177a15.626 15.626 0 0 1-3.24 3.168l9 15.84h-18l-7.199-12.168v12.168h-15.336V1.651zm15.336 23.617h.792c1.823 0 3.371-.407 4.644-1.224 1.271-.816 1.908-2.184 1.908-4.104 0-1.919-.637-3.287-1.908-4.104-1.272-.816-2.82-1.225-4.644-1.225h-.792v10.657z"/><path fill="none" stroke="#FFF" stroke-miterlimit="10" d="M178.401 1.651h16.56c3.071 0 5.915.408 8.532 1.225 2.615.816 4.884 2.016 6.804 3.6 1.919 1.584 3.42 3.54 4.5 5.868s1.62 5.004 1.62 8.027c0 2.401-.337 4.44-1.008 6.12-.673 1.681-1.417 3.071-2.232 4.177a15.626 15.626 0 0 1-3.24 3.168l9 15.84h-18l-7.199-12.168v12.168h-15.336V1.651zm15.336 23.617h.792c1.823 0 3.371-.407 4.644-1.224 1.271-.816 1.908-2.184 1.908-4.104 0-1.919-.637-3.287-1.908-4.104-1.272-.816-2.82-1.225-4.644-1.225h-.792v10.657z"/><linearGradient id="d" gradientUnits="userSpaceOnUse" x1="249.913" y1="43.916" x2="249.913" y2="7.412"><stop offset="0" stop-color="#00aeef"/><stop offset=".186" stop-color="#03acee"/><stop offset=".323" stop-color="#0ca5ea"/><stop offset=".444" stop-color="#1c99e3"/><stop offset=".555" stop-color="#3389da"/><stop offset=".66" stop-color="#5073cd"/><stop offset=".761" stop-color="#7459be"/><stop offset=".858" stop-color="#9e39ad"/><stop offset=".949" stop-color="#ce1699"/><stop offset="1" stop-color="#ec008c"/></linearGradient><path fill="url(#d)" d="M236.665 43.916l1.368-3.602h23.76l1.368 3.602h2.016L251.281 7.411h-2.736l-13.896 36.505h2.016zM249.913 9.14l11.231 29.448H238.68L249.913 9.14z"/><path fill="#333" d="M285.649 5.651l8.136 20.88 8.208-20.88h16.777l-18.72 48.025h-12.456L268.873 5.651z"/><path d="M281.649 1.651l8.136 20.88 8.208-20.88h16.777l-18.72 48.025h-12.456L264.873 1.651z"/><path fill="none" stroke="#FFF" stroke-miterlimit="10" d="M281.649 1.651l8.136 20.88 8.208-20.88h16.777l-18.72 48.025h-12.456L264.873 1.651z"/><linearGradient id="e" gradientUnits="userSpaceOnUse" x1="289.821" y1="43.916" x2="289.821" y2="7.412"><stop offset="0" stop-color="#00aeef"/><stop offset=".186" stop-color="#03acee"/><stop offset=".323" stop-color="#0ca5ea"/><stop offset=".444" stop-color="#1c99e3"/><stop offset=".555" stop-color="#3389da"/><stop offset=".66" stop-color="#5073cd"/><stop offset=".761" stop-color="#7459be"/><stop offset=".858" stop-color="#9e39ad"/><stop offset=".949" stop-color="#ce1699"/><stop offset="1" stop-color="#ec008c"/></linearGradient><path fill="url(#e)" d="M290.577 43.916l14.256-36.505h-2.016l-13.032 33.193-12.96-33.193h-2.015l14.255 36.505z"/><g><path fill="#333" d="M325.77 5.651h28.296v12.601h-12.96v5.327h12.744v11.952h-12.744v5.543h13.464v12.602h-28.8z"/><path d="M321.77 1.651h28.296v12.601h-12.96v5.327h12.744v11.952h-12.744v5.543h13.464v12.602h-28.8z"/><path fill="none" stroke="#FFF" stroke-miterlimit="10" d="M321.77 1.651h28.296v12.601h-12.96v5.327h12.744v11.952h-12.744v5.543h13.464v12.602h-28.8z"/></g><linearGradient id="f" gradientUnits="userSpaceOnUse" x1="337.106" y1="43.916" x2="337.106" y2="7.412"><stop offset="0" stop-color="#00aeef"/><stop offset=".186" stop-color="#03acee"/><stop offset=".323" stop-color="#0ca5ea"/><stop offset=".444" stop-color="#1c99e3"/><stop offset=".555" stop-color="#3389da"/><stop offset=".66" stop-color="#5073cd"/><stop offset=".761" stop-color="#7459be"/><stop offset=".858" stop-color="#9e39ad"/><stop offset=".949" stop-color="#ce1699"/><stop offset="1" stop-color="#ec008c"/></linearGradient><path fill="url(#f)" d="M345.242 43.916v-1.728h-14.4V26.42h13.68v-1.729h-13.68V9.14h14.4V7.411H328.97v36.505z"/><g><path fill="#333" d="M361.714 38.771c1.056.336 2.16.6 3.312.791.96.242 2.052.432 3.275.576 1.225.145 2.46.217 3.708.217 2.208 0 3.312-.816 3.312-2.449 0-.623-.336-1.26-1.008-1.906-.673-.648-1.524-1.369-2.557-2.16a141.52 141.52 0 0 1-3.312-2.629 23.772 23.772 0 0 1-3.312-3.312 17.277 17.277 0 0 1-2.556-4.212c-.673-1.56-1.008-3.348-1.008-5.364 0-2.255.407-4.248 1.224-5.976.815-1.729 1.944-3.168 3.385-4.32 1.439-1.151 3.132-2.027 5.075-2.628 1.944-.6 4.02-.899 6.229-.899 1.151 0 2.304.061 3.456.18l3.096.324c1.056.144 2.088.288 3.096.432V18.9a59.505 59.505 0 0 0-1.296-.144 59.067 59.067 0 0 0-1.296-.145c-.48-.047-.984-.072-1.512-.072-.288 0-.648.013-1.08.036a6.604 6.604 0 0 0-1.224.181c-.385.097-.721.264-1.009.504s-.432.576-.432 1.008c0 .385.324.864.972 1.44.648.575 1.44 1.248 2.376 2.016a99.073 99.073 0 0 1 3.097 2.664 21.517 21.517 0 0 1 3.096 3.456c.936 1.295 1.728 2.76 2.376 4.391.648 1.633.972 3.457.972 5.473 0 2.113-.336 4.092-1.008 5.939a12.62 12.62 0 0 1-3.132 4.824c-1.416 1.369-3.229 2.449-5.437 3.24-2.208.793-4.823 1.188-7.848 1.188-1.824 0-3.517-.084-5.076-.252a46.944 46.944 0 0 1-4.14-.611 34.726 34.726 0 0 1-3.816-.863V38.771z"/><path d="M357.714 34.771c1.056.336 2.16.6 3.312.791.96.242 2.052.432 3.275.576 1.225.145 2.46.217 3.708.217 2.208 0 3.312-.816 3.312-2.449 0-.623-.336-1.26-1.008-1.906-.673-.648-1.524-1.369-2.557-2.16a141.52 141.52 0 0 1-3.312-2.629 23.772 23.772 0 0 1-3.312-3.312 17.277 17.277 0 0 1-2.556-4.212c-.673-1.56-1.008-3.348-1.008-5.364 0-2.255.407-4.248 1.224-5.976.815-1.729 1.944-3.168 3.385-4.32 1.439-1.151 3.132-2.027 5.075-2.628 1.944-.6 4.02-.899 6.229-.899 1.151 0 2.304.061 3.456.18l3.096.324c1.056.144 2.088.288 3.096.432V14.9a59.505 59.505 0 0 0-1.296-.144 59.067 59.067 0 0 0-1.296-.145c-.48-.047-.984-.072-1.512-.072-.288 0-.648.013-1.08.036a6.604 6.604 0 0 0-1.224.181c-.385.097-.721.264-1.009.504s-.432.576-.432 1.008c0 .385.324.864.972 1.44.648.575 1.44 1.248 2.376 2.016a99.073 99.073 0 0 1 3.097 2.664 21.517 21.517 0 0 1 3.096 3.456c.936 1.295 1.728 2.76 2.376 4.391.648 1.633.972 3.457.972 5.473 0 2.113-.336 4.092-1.008 5.939a12.62 12.62 0 0 1-3.132 4.824c-1.416 1.369-3.229 2.449-5.437 3.24-2.208.793-4.823 1.188-7.848 1.188-1.824 0-3.517-.084-5.076-.252a46.944 46.944 0 0 1-4.14-.611 34.726 34.726 0 0 1-3.816-.863V34.771z"/><path fill="none" stroke="#FFF" stroke-miterlimit="10" d="M357.714 34.771c1.056.336 2.16.6 3.312.791.96.242 2.052.432 3.275.576 1.225.145 2.46.217 3.708.217 2.208 0 3.312-.816 3.312-2.449 0-.623-.336-1.26-1.008-1.906-.673-.648-1.524-1.369-2.557-2.16a141.52 141.52 0 0 1-3.312-2.629 23.772 23.772 0 0 1-3.312-3.312 17.277 17.277 0 0 1-2.556-4.212c-.673-1.56-1.008-3.348-1.008-5.364 0-2.255.407-4.248 1.224-5.976.815-1.729 1.944-3.168 3.385-4.32 1.439-1.151 3.132-2.027 5.075-2.628 1.944-.6 4.02-.899 6.229-.899 1.151 0 2.304.061 3.456.18l3.096.324c1.056.144 2.088.288 3.096.432V14.9a59.505 59.505 0 0 0-1.296-.144 59.067 59.067 0 0 0-1.296-.145c-.48-.047-.984-.072-1.512-.072-.288 0-.648.013-1.08.036a6.604 6.604 0 0 0-1.224.181c-.385.097-.721.264-1.009.504s-.432.576-.432 1.008c0 .385.324.864.972 1.44.648.575 1.44 1.248 2.376 2.016a99.073 99.073 0 0 1 3.097 2.664 21.517 21.517 0 0 1 3.096 3.456c.936 1.295 1.728 2.76 2.376 4.391.648 1.633.972 3.457.972 5.473 0 2.113-.336 4.092-1.008 5.939a12.62 12.62 0 0 1-3.132 4.824c-1.416 1.369-3.229 2.449-5.437 3.24-2.208.793-4.823 1.188-7.848 1.188-1.824 0-3.517-.084-5.076-.252a46.944 46.944 0 0 1-4.14-.611 34.726 34.726 0 0 1-3.816-.863V34.771z"/></g><linearGradient id="g" gradientUnits="userSpaceOnUse" x1="372.367" y1="44.131" x2="372.367" y2="7.268"><stop offset="0" stop-color="#00aeef"/><stop offset=".186" stop-color="#03acee"/><stop offset=".323" stop-color="#0ca5ea"/><stop offset=".444" stop-color="#1c99e3"/><stop offset=".555" stop-color="#3389da"/><stop offset=".66" stop-color="#5073cd"/><stop offset=".761" stop-color="#7459be"/><stop offset=".858" stop-color="#9e39ad"/><stop offset=".949" stop-color="#ce1699"/><stop offset="1" stop-color="#ec008c"/></linearGradient><path fill="url(#g)" d="M363.763 43.41c.671.145 1.392.266 2.159.361.672.096 1.38.18 2.124.252s1.5.107 2.269.107c1.343 0 2.651-.154 3.924-.469 1.271-.311 2.412-.826 3.42-1.547s1.812-1.645 2.412-2.771c.6-1.129.9-2.508.9-4.141 0-1.393-.35-2.711-1.045-3.961-.696-1.246-1.584-2.447-2.663-3.6a45.628 45.628 0 0 0-3.456-3.312c-1.225-1.055-2.376-2.123-3.456-3.203s-1.969-2.16-2.664-3.24c-.696-1.08-1.044-2.196-1.044-3.349 0-1.728.551-3.06 1.655-3.995 1.104-.937 2.881-1.404 5.328-1.404a19.858 19.858 0 0 1 2.376.143 9.09 9.09 0 0 0 1.152.072v-1.87c-.337 0-.696-.023-1.08-.072a14.096 14.096 0 0 0-1.116-.107 22.37 22.37 0 0 0-1.26-.036c-2.592 0-4.729.588-6.408 1.764-1.681 1.177-2.52 3.013-2.52 5.508 0 1.345.348 2.604 1.044 3.78.695 1.177 1.584 2.329 2.664 3.456a49.28 49.28 0 0 0 3.456 3.276c1.224 1.057 2.376 2.124 3.456 3.204s1.967 2.195 2.664 3.348c.694 1.152 1.044 2.352 1.044 3.6 0 2.305-.781 4.057-2.341 5.256-1.56 1.201-3.708 1.801-6.443 1.801-1.633 0-3.121-.119-4.464-.361a26.829 26.829 0 0 1-2.088-.359v1.869z"/><linearGradient id="h" gradientUnits="userSpaceOnUse" x1="56.888" y1="43.916" x2="56.888" y2="7.412"><stop offset="0" stop-color="#0f0"/><stop offset=".181" stop-color="#03ff00"/><stop offset=".314" stop-color="#0cfe00"/><stop offset=".431" stop-color="#1cfe00"/><stop offset=".539" stop-color="#33fc00"/><stop offset=".641" stop-color="#50fb00"/><stop offset=".739" stop-color="#74f900"/><stop offset=".833" stop-color="#9ef700"/><stop offset=".921" stop-color="#cef400"/><stop offset="1" stop-color="#fff200"/></linearGradient><path fill="url(#h)" d="M43.641 43.916l1.367-3.602h23.761l1.368 3.602h2.016L58.256 7.411h-2.735L41.624 43.916h2.017zM56.889 9.14L68.12 38.588H45.656L56.889 9.14z"/><linearGradient id="i" gradientUnits="userSpaceOnUse" x1="197.408" y1="43.916" x2="197.408" y2="7.412"><stop offset="0" stop-color="#00aeef"/><stop offset=".186" stop-color="#03acee"/><stop offset=".323" stop-color="#0ca5ea"/><stop offset=".444" stop-color="#1c99e3"/><stop offset=".555" stop-color="#3389da"/><stop offset=".66" stop-color="#5073cd"/><stop offset=".761" stop-color="#7459be"/><stop offset=".858" stop-color="#9e39ad"/><stop offset=".949" stop-color="#ce1699"/><stop offset="1" stop-color="#ec008c"/></linearGradient><path fill="url(#i)" d="M193.377 32.971c1.872 0 3.695-.191 5.472-.576l6.84 11.521h2.232l-7.2-12.098c2.592-.91 4.655-2.314 6.192-4.211 1.535-1.896 2.304-4.355 2.304-7.38 0-2.111-.408-3.96-1.224-5.544-.817-1.584-1.933-2.916-3.349-3.996s-3.084-1.896-5.004-2.448c-1.92-.551-4.008-.828-6.264-.828H185.6v36.505h1.872V32.971h5.905zm-5.904-1.729V9.14h5.904c4.367 0 7.787.961 10.26 2.88 2.472 1.92 3.708 4.656 3.708 8.208 0 3.553-1.236 6.276-3.708 8.171-2.473 1.896-5.893 2.844-10.26 2.844h-5.904z"/></svg>